<svg id="Capa_1" enable-background="new 0 0 512 512" height="512" viewBox="0 0 512 512" width="512" xmlns="http://www.w3.org/2000/svg"><g><path d="m452 256c0-9.461-.686-18.947-2.043-28.313l60.896-42.267-66.301-114.84-67.063 31.61c-14.953-11.844-31.38-21.344-49.033-28.358l-6.154-73.832h-132.604l-6.153 73.832c-17.654 7.015-34.081 16.515-49.033 28.358l-67.064-31.61-66.301 114.84 60.896 42.267c-1.358 9.366-2.043 18.851-2.043 28.313s.686 18.947 2.043 28.313l-60.896 42.267 66.302 114.84 67.063-31.609c16.364 12.966 34.458 23.087 53.989 30.232v-65.952c-19.024-10.887-35.177-26.228-47.079-44.8-14.015-21.867-21.422-47.211-21.422-73.291 0-59.072 37.717-111.046 93.854-129.33l19.646-6.398v98.52l22.5 18 22.5-18v-98.52l19.646 6.398c56.136 18.284 93.854 70.258 93.854 129.33 0 26.08-7.407 51.424-21.421 73.291-11.901 18.572-28.055 33.913-47.079 44.8v65.952c19.53-7.145 37.624-17.267 53.989-30.233l67.063 31.609 66.302-114.84-60.896-42.267c1.356-9.365 2.042-18.851 2.042-28.312z"/><path d="m293.5 355.628 8.483-4.092c36.459-17.584 60.017-55.085 60.017-95.536 0-38.752-20.824-73.586-53.5-92.142v69.351l-52.5 42-52.5-42v-69.351c-32.677 18.556-53.5 53.39-53.5 92.142 0 40.451 23.558 77.951 60.017 95.536l8.483 4.092v156.372h75z"/></g></svg>